<svg width="64" height="64" viewBox="0 0 64 64" fill="none" xmlns="http://www.w3.org/2000/svg">
<g clip-path="url(#clip0_130_357)">
<path d="M49 0H15C6.71573 0 0 6.71573 0 15V49C0 57.2843 6.71573 64 15 64H49C57.2843 64 64 57.2843 64 49V15C64 6.71573 57.2843 0 49 0Z" fill="url(#paint0_radial_130_357)"/>
<path d="M49 0H15C6.71573 0 0 6.71573 0 15V49C0 57.2843 6.71573 64 15 64H49C57.2843 64 64 57.2843 64 49V15C64 6.71573 57.2843 0 49 0Z" fill="url(#paint1_radial_130_357)"/>
<g clip-path="url(#clip1_130_357)">
<path d="M37.7709 29.8224L30.6803 25.0939C30.3459 24.8708 29.9573 24.7428 29.5558 24.7235C29.1544 24.7042 28.7552 24.7944 28.4011 24.9843C28.0469 25.1743 27.751 25.4569 27.545 25.802C27.3389 26.1471 27.2306 26.5417 27.2315 26.9436V36.3985C27.2314 36.8 27.3403 37.194 27.5467 37.5385C27.753 37.883 28.049 38.1649 28.403 38.3544C28.7571 38.5438 29.1559 38.6336 29.5569 38.6141C29.958 38.5946 30.3463 38.4666 30.6803 38.2438L37.7709 33.5152C38.0746 33.3127 38.3237 33.0383 38.4959 32.7164C38.6682 32.3945 38.7583 32.035 38.7583 31.6699C38.7583 31.3048 38.6682 30.9454 38.4959 30.6235C38.3237 30.3016 38.0746 30.025 37.7709 29.8224Z" stroke="white" stroke-width="3.36842" stroke-linecap="round" stroke-linejoin="round"/>
<path d="M51.6283 31.6673C51.6283 34.2886 51.112 36.8843 50.1089 39.3061C49.1058 41.7278 47.6354 43.9283 45.7819 45.7819C43.9283 47.6354 41.7278 49.1058 39.3061 50.1089C36.8843 51.112 34.2886 51.6283 31.6673 51.6283C29.046 51.6283 26.4503 51.112 24.0286 50.1089C21.6068 49.1058 19.4063 47.6354 17.5527 45.7819C15.6992 43.9283 14.2289 41.7278 13.2257 39.3061C12.2226 36.8843 11.7063 34.2886 11.7063 31.6673C11.7063 26.3733 13.8093 21.2962 17.5527 17.5527C21.2962 13.8093 26.3733 11.7063 31.6673 11.7063C36.9613 11.7063 42.0385 13.8093 45.7819 17.5527C49.5253 21.2962 51.6283 26.3733 51.6283 31.6673Z" stroke="white" stroke-width="3.36842" stroke-linecap="round" stroke-linejoin="round"/>
</g>
</g>
<defs>
<radialGradient id="paint0_radial_130_357" cx="0" cy="0" r="1" gradientUnits="userSpaceOnUse" gradientTransform="translate(16.6667 76) rotate(-89.7291) scale(70.5003 65.5708)">
<stop stop-color="#FFDD55"/>
<stop offset="0.1" stop-color="#FFDD55"/>
<stop offset="0.5" stop-color="#FF543E"/>
<stop offset="1" stop-color="#C837AB"/>
</radialGradient>
<radialGradient id="paint1_radial_130_357" cx="0" cy="0" r="1" gradientUnits="userSpaceOnUse" gradientTransform="translate(-10.7202 4.61025) rotate(78.681) scale(28.353 116.872)">
<stop stop-color="#3771C8"/>
<stop offset="0.128" stop-color="#3771C8"/>
<stop offset="1" stop-color="#6600FF" stop-opacity="0"/>
</radialGradient>
<clipPath id="clip0_130_357">
<rect width="64" height="64" fill="white"/>
</clipPath>
<clipPath id="clip1_130_357">
<rect width="53.8947" height="53.8947" fill="white" transform="translate(5.05273 5.05273)"/>
</clipPath>
</defs>
</svg>
