<svg width="64" height="64" viewBox="0 0 64 64" fill="none" xmlns="http://www.w3.org/2000/svg">
<g clip-path="url(#clip0_130_342)">
<path d="M15 64H49C57.2843 64 64 57.2843 64 49V15C64 6.71573 57.2843 0 49 0H15C6.71573 0 0 6.71573 0 15V49C0 57.2843 6.71573 64 15 64Z" fill="url(#paint0_radial_130_342)"/>
<path d="M15 64H49C57.2843 64 64 57.2843 64 49V15C64 6.71573 57.2843 0 49 0H15C6.71573 0 0 6.71573 0 15V49C0 57.2843 6.71573 64 15 64Z" fill="url(#paint1_radial_130_342)"/>
<path d="M26.9705 31.3683C26.9705 32.6091 27.4634 33.799 28.3407 34.6764C29.2181 35.5538 30.408 36.0467 31.6488 36.0467C32.8896 36.0467 34.0796 35.5538 34.9569 34.6764C35.8343 33.799 36.3272 32.6091 36.3272 31.3683C36.3272 30.1275 35.8343 28.9376 34.9569 28.0602C34.0796 27.1828 32.8896 26.6899 31.6488 26.6899C30.408 26.6899 29.2181 27.1828 28.3407 28.0602C27.4634 28.9376 26.9705 30.1275 26.9705 31.3683Z" stroke="white" stroke-width="3.87368" stroke-linecap="round" stroke-linejoin="round"/>
<path d="M52.7015 31.3683C47.0874 40.7251 40.0699 45.4034 31.6488 45.4034C23.2278 45.4034 16.2102 40.7251 10.5962 31.3683C16.2102 22.0116 23.2278 17.3333 31.6488 17.3333C40.0699 17.3333 47.0874 22.0116 52.7015 31.3683Z" stroke="white" stroke-width="3.87368" stroke-linecap="round" stroke-linejoin="round"/>
</g>
<defs>
<radialGradient id="paint0_radial_130_342" cx="0" cy="0" r="1" gradientUnits="userSpaceOnUse" gradientTransform="translate(48 -10.9474) rotate(90.825) scale(69.4541 64.5978)">
<stop stop-color="#FFDD55"/>
<stop offset="0.1" stop-color="#FFDD55"/>
<stop offset="0.5" stop-color="#FF543E"/>
<stop offset="1" stop-color="#C837AB"/>
</radialGradient>
<radialGradient id="paint1_radial_130_342" cx="0" cy="0" r="1" gradientUnits="userSpaceOnUse" gradientTransform="translate(74.7202 59.3898) rotate(-101.319) scale(28.353 116.872)">
<stop stop-color="#3771C8"/>
<stop offset="0.128" stop-color="#3771C8"/>
<stop offset="1" stop-color="#6600FF" stop-opacity="0"/>
</radialGradient>
<clipPath id="clip0_130_342">
<rect width="64" height="64" fill="white"/>
</clipPath>
</defs>
</svg>
