<svg width="64" height="64" viewBox="0 0 64 64" fill="none" xmlns="http://www.w3.org/2000/svg">
<g clip-path="url(#clip0_130_371)">
<path d="M15 0H49C57.2843 0 64 6.71573 64 15V49C64 57.2843 57.2843 64 49 64H15C6.71573 64 0 57.2843 0 49V15C0 6.71573 6.71573 0 15 0Z" fill="url(#paint0_radial_130_371)"/>
<path d="M15 0H49C57.2843 0 64 6.71573 64 15V49C64 57.2843 57.2843 64 49 64H15C6.71573 64 0 57.2843 0 49V15C0 6.71573 6.71573 0 15 0Z" fill="url(#paint1_radial_130_371)"/>
<g clip-path="url(#clip1_130_371)">
<path d="M36.9924 35.2549L30.3669 30.9288C30.0545 30.7248 29.6913 30.6076 29.3162 30.59C28.9411 30.5723 28.5681 30.6548 28.2372 30.8286C27.9062 31.0024 27.6297 31.261 27.4372 31.5767C27.2447 31.8924 27.1435 32.2534 27.1443 32.6211V41.2713C27.1442 41.6387 27.246 41.9991 27.4388 42.3143C27.6316 42.6294 27.9082 42.8874 28.239 43.0607C28.5698 43.234 28.9425 43.3162 29.3173 43.2983C29.692 43.2805 30.0548 43.1634 30.3669 42.9595L36.9924 38.6334C37.2762 38.4481 37.509 38.1971 37.6699 37.9026C37.8309 37.6081 37.9151 37.2792 37.9151 36.9452C37.9151 36.6112 37.8309 36.2823 37.6699 35.9878C37.509 35.6933 37.2762 35.4402 36.9924 35.2549Z" stroke="white" stroke-width="2.69474" stroke-linecap="round" stroke-linejoin="round"/>
<path d="M11.3483 18.5265C11.3483 14.8059 14.3645 11.7897 18.0851 11.7897H45.9153C49.636 11.7897 52.6522 14.8059 52.6522 18.5265V45.4739C52.6522 49.1945 49.636 52.2107 45.9153 52.2107H18.0851C14.3645 52.2107 11.3483 49.1945 11.3483 45.4739V24.496V18.5265Z" stroke="white" stroke-width="3.36842"/>
<path d="M12.489 24.1429H28.4686M51.6877 24.1429H28.4686M28.4686 24.1429L22.2887 13.3721M42.2411 24.1429L36.0612 13.3721" stroke="white" stroke-width="3.36842" stroke-linecap="round"/>
</g>
</g>
<defs>
<radialGradient id="paint0_radial_130_371" cx="0" cy="0" r="1" gradientUnits="userSpaceOnUse" gradientTransform="translate(46.6315 82) rotate(-89.724) scale(76.5004 71.1514)">
<stop stop-color="#FFDD55"/>
<stop offset="0.1" stop-color="#FFDD55"/>
<stop offset="0.5" stop-color="#FF543E"/>
<stop offset="1" stop-color="#C837AB"/>
</radialGradient>
<radialGradient id="paint1_radial_130_371" cx="0" cy="0" r="1" gradientUnits="userSpaceOnUse" gradientTransform="translate(74.7202 4.61025) rotate(101.319) scale(28.353 116.872)">
<stop stop-color="#3771C8"/>
<stop offset="0.128" stop-color="#3771C8"/>
<stop offset="1" stop-color="#6600FF" stop-opacity="0"/>
</radialGradient>
<clipPath id="clip0_130_371">
<rect width="64" height="64" fill="white"/>
</clipPath>
<clipPath id="clip1_130_371">
<rect width="53.8947" height="53.8947" fill="white" transform="translate(5.05273 5.05273)"/>
</clipPath>
</defs>
</svg>
