<svg width="64" height="64" viewBox="0 0 64 64" fill="none" xmlns="http://www.w3.org/2000/svg">
<path d="M62.5881 17.0185C62.2209 15.6618 61.5047 14.425 60.5109 13.4312C59.517 12.4374 58.2802 11.7213 56.9235 11.3543C51.9564 9.99988 31.9677 9.99988 31.9677 9.99988C31.9677 9.99988 11.9782 10.041 7.01191 11.3954C5.65528 11.7625 4.41849 12.4786 3.42471 13.4724C2.43092 14.4662 1.71482 15.703 1.3477 17.0596C-0.154664 25.8847 -0.737525 39.3312 1.3888 47.8029C1.75592 49.1595 2.47202 50.3963 3.46581 51.3901C4.45959 52.3839 5.69638 53.1 7.05301 53.4671C12.0197 54.8215 32.0088 54.8215 32.0088 54.8215C32.0088 54.8215 51.9979 54.8215 56.9646 53.4671C58.3212 53.1 59.558 52.3839 60.5518 51.3901C61.5456 50.3963 62.2617 49.1595 62.6288 47.8029C64.213 38.9656 64.7015 25.5273 62.5877 17.0189" fill="#FF0000"/>
<path d="M10.8672 39C10.0862 39 9.45312 38.3669 9.45312 37.586V28.3516C9.45312 27.6052 10.0582 27 10.8047 27H11.1367C11.6998 27 12.1562 27.4565 12.1562 28.0196V28.9564C12.1562 29.0021 12.1933 29.0391 12.2389 29.0391V29.0391C12.2737 29.0391 12.3047 29.0173 12.3171 28.9848C12.5689 28.3233 12.9763 27.8049 13.5391 27.4297C14.1172 27.0391 14.8073 26.8438 15.6094 26.8438C16.4219 26.8438 17.1068 27.0417 17.6641 27.4375C18.2096 27.8164 18.5984 28.33 18.8304 28.9784C18.8434 29.0146 18.8774 29.0391 18.9158 29.0391V29.0391C18.9525 29.0391 18.9854 29.0167 18.9995 28.9829C19.2677 28.3425 19.7079 27.83 20.3203 27.4453C20.9557 27.0443 21.7083 26.8438 22.5781 26.8438C23.6823 26.8438 24.5833 27.1927 25.2812 27.8907C25.9792 28.5886 26.3281 29.6068 26.3281 30.9453V37.5821C26.3281 38.3652 25.6933 39 24.9102 39V39C24.127 39 23.4922 38.3652 23.4922 37.5821V31.3828C23.4922 30.6381 23.2943 30.0938 22.8984 29.75C22.5026 29.4011 22.0182 29.2266 21.4453 29.2266C20.763 29.2266 20.2292 29.4401 19.8438 29.8672C19.4635 30.2891 19.2734 30.8386 19.2734 31.5157V37.6133C19.2734 38.3792 18.6526 39 17.8867 39V39C17.1209 39 16.5 38.3792 16.5 37.6133V31.2657C16.5 30.6459 16.3125 30.1511 15.9375 29.7813C15.5677 29.4115 15.0833 29.2266 14.4844 29.2266C14.0781 29.2266 13.7083 29.3308 13.375 29.5391C13.0417 29.7422 12.776 30.0313 12.5781 30.4063C12.3802 30.7761 12.2812 31.2084 12.2812 31.7032V37.586C12.2812 38.3669 11.6482 39 10.8672 39V39Z" fill="white"/>
<path d="M30.6113 43.5C29.8304 43.5 29.1973 42.8669 29.1973 42.086V28.3907C29.1973 27.6226 29.8199 27 30.5879 27H30.9863C31.5343 27 31.9785 27.4443 31.9785 27.9922V28.883C31.9785 28.939 32.0239 28.9844 32.0799 28.9844V28.9844C32.1183 28.9844 32.1533 28.9627 32.1711 28.9286C32.3148 28.6533 32.511 28.362 32.7598 28.0547C33.0254 27.7214 33.3848 27.4375 33.8379 27.2032C34.291 26.9636 34.8691 26.8438 35.5723 26.8438C36.4993 26.8438 37.3353 27.0808 38.0801 27.5547C38.8301 28.0235 39.4238 28.7188 39.8613 29.6407C40.304 30.5573 40.5254 31.6823 40.5254 33.0157C40.5254 34.3334 40.3092 35.4532 39.877 36.375C39.4447 37.2969 38.8561 38 38.1113 38.4844C37.3665 38.9688 36.5228 39.211 35.5801 39.211C34.8926 39.211 34.3223 39.0964 33.8691 38.8672C33.416 38.6381 33.0514 38.362 32.7754 38.0391C32.5167 37.7256 32.3126 37.4288 32.1632 37.1486C32.1504 37.1246 32.1255 37.1094 32.0983 37.1094V37.1094C32.058 37.1094 32.0254 37.142 32.0254 37.1823V42.086C32.0254 42.8669 31.3923 43.5 30.6113 43.5V43.5ZM31.9707 33C31.9707 33.7761 32.0801 34.4558 32.2988 35.0391C32.5228 35.6224 32.8431 36.0782 33.2598 36.4063C33.6816 36.7292 34.1921 36.8907 34.791 36.8907C35.416 36.8907 35.9395 36.724 36.3613 36.3907C36.7832 36.0521 37.1009 35.5912 37.3145 35.0078C37.5332 34.4193 37.6426 33.75 37.6426 33C37.6426 32.2552 37.5358 31.5938 37.3223 31.0157C37.1087 30.4375 36.791 29.9844 36.3691 29.6563C35.9473 29.3282 35.4212 29.1641 34.791 29.1641C34.1868 29.1641 33.6738 29.323 33.252 29.6407C32.8301 29.9584 32.5098 30.4037 32.291 30.9766C32.0775 31.5495 31.9707 32.224 31.9707 33Z" fill="white"/>
<path fill-rule="evenodd" clip-rule="evenodd" d="M44.4137 36.0313C43.4269 36.0313 42.627 35.2313 42.627 34.2445V34.2445C42.627 33.9062 42.723 33.5748 42.9039 33.289L48.4509 24.525C49.0518 23.5755 50.0971 23 51.2207 23V23V23C52.2174 23 53.0254 23.808 53.0254 24.8047V32.625C53.0254 33.1903 53.4836 33.6485 54.0488 33.6485V33.6485C54.6141 33.6485 55.0723 34.1067 55.0723 34.6719V34.8399C55.0723 35.4979 54.5389 36.0313 53.8809 36.0313H53.1229C53.069 36.0313 53.0254 36.0749 53.0254 36.1288V37.6172C53.0254 38.3809 52.4063 39 51.6426 39V39C50.8789 39 50.2598 38.3809 50.2598 37.6172V36.1727C50.2598 36.0946 50.1965 36.0313 50.1184 36.0313H44.4137ZM45.5957 33.5515C45.5957 33.5332 45.6009 33.5153 45.6107 33.4998L50.1423 26.3189C50.1571 26.2955 50.1828 26.2813 50.2104 26.2813V26.2813C50.2549 26.2813 50.291 26.3174 50.291 26.3619V33.4249C50.291 33.5484 50.1909 33.6485 50.0674 33.6485H45.6927C45.6391 33.6485 45.5957 33.6051 45.5957 33.5515V33.5515Z" fill="white"/>
</svg>
