<svg xmlns="http://www.w3.org/2000/svg" width="64" height="64" fill="none"><g clip-path="url(#a)"><path fill="red" d="M32 0C14.336 0 0 14.336 0 32s14.336 32 32 32 32-14.336 32-32S49.664 0 32 0Zm0 50.944c-10.464 0-18.944-8.48-18.944-18.944 0-10.464 8.48-18.944 18.944-18.944 10.464 0 18.944 8.48 18.944 18.944 0 10.464-8.48 18.944-18.944 18.944Zm0-35.552c-9.152 0-16.608 7.456-16.608 16.608 0 9.152 7.456 16.608 16.608 16.608 9.152 0 16.608-7.456 16.608-16.608 0-9.152-7.456-16.608-16.608-16.608ZM25.824 41.44V22.56L42.176 32l-16.352 9.44Z"/><path fill="#fff" fill-rule="evenodd" d="M32 50.944c-10.464 0-18.944-8.48-18.944-18.944 0-10.464 8.48-18.944 18.944-18.944 10.464 0 18.944 8.48 18.944 18.944 0 10.464-8.48 18.944-18.944 18.944ZM15.392 32c0-9.152 7.456-16.608 16.608-16.608 9.152 0 16.608 7.456 16.608 16.608 0 9.152-7.456 16.608-16.608 16.608-9.152 0-16.608-7.456-16.608-16.608Z" clip-rule="evenodd"/><path fill="#fff" d="M25.824 41.44V22.56L42.176 32l-16.352 9.44Z"/></g><defs><clipPath id="a"><path fill="#fff" d="M0 0h64v64H0z"/></clipPath></defs></svg>