<svg xmlns="http://www.w3.org/2000/svg" width="64" height="64" fill="none"><path fill="red" d="m50.123 26.64-3.843-1.604 4.58-2.434a11.947 11.947 0 0 0 4.997-16.209 12.016 12.016 0 0 0-16.24-4.997L12.417 15.809a12.01 12.01 0 0 0-6.405 11.182 12.056 12.056 0 0 0 7.11 10.411c.095.032 3.845 1.6 3.845 1.6l-4.55 2.403a12.027 12.027 0 0 0-6.317 10.579A12.075 12.075 0 0 0 18.12 64c1.933 0 3.832-.464 5.546-1.355L50.895 48.23a11.984 11.984 0 0 0 6.373-11.179 12.067 12.067 0 0 0-7.144-10.41ZM25.232 40.505V23.53l16.019 8.49-16.02 8.486Z"/><path fill="#fff" d="M25.232 40.506V23.53l16.019 8.49-16.02 8.486Z"/></svg>